<?xml version="1.0" encoding="utf-8"?>
<!-- Generator: Adobe Illustrator 24.2.1, SVG Export Plug-In . SVG Version: 6.00 Build 0)  -->
<svg version="1.1" id="레이어_1" xmlns="http://www.w3.org/2000/svg" xmlns:xlink="http://www.w3.org/1999/xlink" x="0px"
	 y="0px" viewBox="0 0 283.46 283.46" style="enable-background:new 0 0 283.46 283.46;" xml:space="preserve">
<style type="text/css">
	.st0{fill:#414A56;}
	.st1{fill:#E44942;}
	.st2{fill:#AD3732;}
	.st3{fill:#565F6E;}
	.st4{fill:#D6EDEC;}
	.st5{fill:#AFD6D4;}
	.st6{fill:#D6DDEB;}
	.st7{fill:#738099;}
</style>
<g>
	<g>
		<g>
			<g id="_x33_93_x2C__Cash_x2C__Payment_x2C__Register_x2C__Shopping">
				<g>
					<g>
						<rect x="166.61" y="59.51" class="st0" width="28.5" height="38.69"/>
						<polygon class="st1" points="234.46,21.26 234.46,59.95 195.11,59.95 166.61,59.95 127.26,59.95 127.26,21.26 						"/>
						<path class="st2" d="M144,48.96c-3.17,0-5.88-2.64-5.88-5.71v-5.72c0-3.08,2.72-5.71,5.88-5.71c3.17,0,5.88,2.64,5.88,5.71
							v5.72C149.87,46.32,147.16,48.96,144,48.96z"/>
						<path class="st2" d="M161.18,48.96c-3.16,0-5.88-2.64-5.88-5.71v-5.72c0-3.08,2.72-5.71,5.88-5.71c3.17,0,5.88,2.64,5.88,5.71
							v5.72C166.61,46.32,163.9,48.96,161.18,48.96z"/>
						<path class="st2" d="M177.92,48.96c-3.17,0-5.88-2.64-5.88-5.71v-5.72c0-3.08,2.71-5.71,5.88-5.71s5.88,2.64,5.88,5.71v5.72
							C183.8,46.32,181.09,48.96,177.92,48.96z"/>
						<polygon class="st0" points="246.22,97.32 195.56,97.32 167.06,97.32 42.67,97.32 25.93,212.52 25.93,262.2 263.41,262.2 
							263.41,212.52 						"/>
						<polygon class="st3" points="42.67,97.32 25.93,212.52 263.41,212.52 246.22,97.32 195.56,97.32 167.06,97.32 						"/>
						<rect x="144.45" y="119.31" class="st4" width="85.04" height="21.98"/>
						<rect x="212.3" y="174.27" class="st5" width="17.19" height="16.71"/>
						<rect x="195.56" y="157.56" class="st5" width="17.19" height="16.71"/>
						<rect x="161.64" y="157.56" class="st5" width="17.19" height="16.71"/>
						<rect x="195.56" y="174.27" class="st4" width="17.19" height="16.71"/>
						<rect x="212.3" y="157.56" class="st4" width="17.19" height="16.71"/>
						<rect x="178.37" y="157.56" class="st4" width="17.19" height="16.71"/>
						<rect x="144.45" y="157.56" class="st4" width="17.19" height="16.71"/>
						<rect x="25.93" y="212.52" class="st0" width="237.48" height="49.68"/>
						<polygon class="st6" points="99.21,97.32 99.21,135.58 65.29,135.58 65.29,97.32 65.29,75.34 99.21,75.34 						"/>
						<path class="st7" d="M85.19,25.66c4.53,0,8.6,3.52,8.6,8.35s-3.62,8.35-8.6,8.35c-4.97,0-8.59-3.52-8.59-8.35
							S80.67,25.66,85.19,25.66z"/>
						<path class="st7" d="M25.93,53.36c6.33,0,11.31,4.84,11.31,10.99c0,6.16-4.97,10.99-11.31,10.99
							c-6.33,0-11.31-4.84-11.31-10.99C14.62,58.19,19.6,53.36,25.93,53.36z"/>
						<path class="st7" d="M267.48,71.38c0.9,0.88,1.81,2.2,1.81,3.96c0,1.76-0.45,3.08-1.81,3.96c-0.91,0.88-2.27,1.76-4.07,1.76
							c-3.17,0-5.88-2.64-5.88-5.72c0-1.32,0.46-3.08,1.81-3.96c0.91-0.88,2.26-1.76,4.07-1.76
							C265.22,69.62,266.12,70.5,267.48,71.38z"/>
						<path class="st7" d="M261.6,27.41c0.91,0.88,1.81,2.2,1.81,3.96s-0.46,3.08-1.81,3.96c-1.36,0.88-2.26,1.76-4.07,1.76
							c-3.17,0-5.88-2.64-5.88-5.72c0-1.32,0.45-3.08,1.81-3.96c0.9-0.88,2.26-1.76,4.07-1.76C259.34,25.66,260.7,26.53,261.6,27.41
							z"/>
						<path class="st7" d="M52.62,27.41c0.91,0.88,1.81,2.2,1.81,3.96s-0.45,3.08-1.81,3.96c-1.36,0.88-2.26,1.76-4.07,1.76
							c-3.17,0-5.88-2.64-5.88-5.72c0-1.32,0.45-3.08,1.81-3.96c1.36-0.88,2.26-1.76,4.07-1.76C50.36,25.66,51.26,26.53,52.62,27.41
							z"/>
						<path class="st7" d="M24.12,120.63c0.91,0.88,1.81,2.2,1.81,3.96c0,1.76-0.91,3.08-1.81,3.96c-0.91,0.88-2.26,1.76-4.07,1.76
							c-3.17,0-5.88-2.64-5.88-5.71c0-1.32,0.45-3.08,1.81-3.96c0.9-0.88,2.26-1.76,4.07-1.76
							C21.86,118.87,23.22,119.75,24.12,120.63z"/>
						<path class="st0" d="M110.52,141.29H53.98c-3.17,0-5.88-2.64-5.88-5.71c0-3.08,2.72-5.72,5.88-5.72h56.54
							c3.17,0,5.88,2.64,5.88,5.72C116.4,138.65,113.69,141.29,110.52,141.29z"/>
						<path class="st4" d="M155.76,245.5h-22.62c-3.17,0-5.88-2.64-5.88-5.72c0-3.08,2.72-5.71,5.88-5.71h22.62
							c3.16,0,5.88,2.64,5.88,5.71C161.64,243.3,158.92,245.5,155.76,245.5z"/>
					</g>
				</g>
			</g>
			<g id="Layer_1_1_">
			</g>
		</g>
	</g>
</g>
</svg>
