<?xml version="1.0" encoding="utf-8"?>
<!-- Generator: Adobe Illustrator 24.2.1, SVG Export Plug-In . SVG Version: 6.00 Build 0)  -->
<svg version="1.1" id="레이어_1" xmlns="http://www.w3.org/2000/svg" xmlns:xlink="http://www.w3.org/1999/xlink" x="0px"
	 y="0px" viewBox="0 0 283.46 283.46" style="enable-background:new 0 0 283.46 283.46;" xml:space="preserve">
<style type="text/css">
	.st0{fill:#738099;}
	.st1{fill:#ECF0F0;}
	.st2{fill:#6CA8DC;}
	.st3{fill:#3C3B3D;}
	.st4{fill:#2D2C2E;}
	.st5{fill:#E44942;}
</style>
<g>
	<g>
		<g>
			<g id="_x34_00_x2C__Ecommerce_x2C__List_x2C__Paper_x2C__Shopping">
				<g>
					<g>
						<path class="st0" d="M244.64,26.54c4.81,0,9.14,4.21,9.14,10s-3.85,10-9.14,10c-4.81,0-9.14-4.21-9.14-10
							S239.35,26.54,244.64,26.54z"/>
						<path class="st0" d="M235.51,230.62c6.73,0,12.02,5.78,12.02,13.15c0,7.36-5.29,13.15-12.02,13.15
							c-6.73,0-12.02-5.79-12.02-13.15C223.48,236.41,228.77,230.62,235.51,230.62z"/>
						<path class="st0" d="M16.22,105.44c4.81,0,9.14,4.21,9.14,10c0,5.78-3.85,10-9.14,10c-4.81,0-9.14-4.21-9.14-10
							C7.09,109.65,10.93,105.44,16.22,105.44z"/>
						<polygon class="st1" points="199.44,276.38 181.65,263.23 163.37,276.38 151.35,263.23 133.56,276.38 121.54,263.23 
							103.26,276.38 91.24,263.23 73.45,276.38 61.43,263.23 43.15,276.38 43.15,7.09 61.43,20.24 73.45,7.09 91.24,20.24 
							103.26,7.09 121.54,20.24 133.56,7.09 151.35,20.24 163.37,7.09 181.65,20.24 199.44,7.09 						"/>
						<path class="st0" d="M257.62,179.6c0.96,1.05,1.93,2.63,1.93,4.73c0,2.11-0.48,3.68-1.93,4.74c-0.96,1.05-2.4,2.11-4.33,2.11
							c-3.37,0-6.25-3.16-6.25-6.84c0-1.58,0.48-3.68,1.93-4.73c0.96-1.05,2.4-2.11,4.32-2.11
							C255.22,177.5,256.66,178.55,257.62,179.6z"/>
						<path class="st0" d="M221.56,61.26c0.96,1.05,1.92,2.63,1.92,4.73c0,2.11-0.48,3.68-1.92,4.74c-0.96,1.05-2.4,2.11-4.33,2.11
							c-3.37,0-6.25-3.16-6.25-6.84c0-1.58,0.48-3.68,1.92-4.73c0.96-1.05,2.4-2.11,4.33-2.11S220.6,60.21,221.56,61.26z"/>
						<path class="st0" d="M29.21,219.05c0.96,1.05,1.93,2.63,1.93,4.73c0,1.58-0.48,3.68-1.93,4.74c-1.44,1.05-2.4,2.11-4.33,2.11
							c-3.37,0-6.25-3.16-6.25-6.84c0-1.58,0.48-3.68,1.92-4.73c1.45-1.05,2.4-2.11,4.33-2.11C26.8,217.47,28.24,218,29.21,219.05z"
							/>
						<path class="st2" d="M109.52,59.68H67.2c-3.37,0-6.25-3.16-6.25-6.84c0-3.68,2.89-6.84,6.25-6.84h42.32
							c3.37,0,6.25,3.16,6.25,6.84C115.76,56.52,112.4,59.68,109.52,59.68z"/>
						<path class="st2" d="M175.4,79.14H67.2c-3.37,0-6.25-3.15-6.25-6.84c0-3.68,2.89-6.84,6.25-6.84h108.2
							c3.37,0,6.25,3.15,6.25,6.84C181.65,76.51,178.76,79.14,175.4,79.14z"/>
						<path class="st2" d="M109.52,112.28H67.2c-3.37,0-6.25-3.16-6.25-6.84c0-3.68,2.89-6.84,6.25-6.84h42.32
							c3.37,0,6.25,3.16,6.25,6.84C115.29,109.12,112.4,112.28,109.52,112.28z"/>
						<path class="st2" d="M175.4,131.74H67.2c-3.37,0-6.25-3.15-6.25-6.84c0-3.68,2.89-6.84,6.25-6.84h108.2
							c3.37,0,6.25,3.15,6.25,6.84C181.65,129.11,178.76,131.74,175.4,131.74z"/>
						<path class="st2" d="M109.52,164.88H67.2c-3.37,0-6.25-3.16-6.25-6.84c0-3.68,2.89-6.84,6.25-6.84h42.32
							c3.37,0,6.25,3.16,6.25,6.84C115.76,161.72,112.4,164.88,109.52,164.88z"/>
						<path class="st2" d="M133.56,184.33H67.2c-3.37,0-6.25-3.15-6.25-6.84c0-3.68,2.89-6.84,6.25-6.84h66.36
							c3.37,0,6.25,3.15,6.25,6.84C139.81,181.18,136.44,184.33,133.56,184.33z"/>
						<path class="st2" d="M109.52,217.47H67.2c-3.37,0-6.25-3.16-6.25-6.84c0-3.68,2.89-6.84,6.25-6.84h42.32
							c3.37,0,6.25,3.16,6.25,6.84C115.76,214.31,112.4,217.47,109.52,217.47z"/>
						<path class="st2" d="M139.33,236.93H67.2c-3.37,0-6.25-3.15-6.25-6.84c0-3.68,2.89-6.84,6.25-6.84h72.13
							c3.37,0,6.25,3.15,6.25,6.84C145.58,234.3,142.69,236.93,139.33,236.93z"/>
						<polygon class="st3" points="245.6,114.38 258.59,128.06 199.44,192.75 177.8,216.42 139.33,230.62 152.31,188.55 199.44,137 
							232.62,100.18 						"/>
						<path class="st4" d="M177.8,195.38c-1.44,0-2.89-0.53-4.33-2.11c-2.4-2.63-2.4-6.84,0-9.47l67.8-74.16
							c2.4-2.63,6.25-2.63,8.65,0c2.41,2.63,2.41,6.84,0,9.47l-68.28,74.16C180.68,194.33,179.24,195.38,177.8,195.38z"/>
						<path class="st5" d="M271.09,86.51c3.37,3.68,5.29,8.94,5.29,14.2c0,5.26-1.92,9.99-5.29,14.2l-12.98,14.2l-12.99-14.2
							l-12.98-14.2l12.98-14.2C252.82,78.62,263.88,78.62,271.09,86.51z"/>
					</g>
				</g>
			</g>
			<g id="Layer_1_00000041265181336334884590000007493855748386612362_">
			</g>
		</g>
	</g>
</g>
</svg>
