<?xml version="1.0" encoding="utf-8"?>
<!-- Generator: Adobe Illustrator 24.2.1, SVG Export Plug-In . SVG Version: 6.00 Build 0)  -->
<svg version="1.1" id="레이어_1" xmlns="http://www.w3.org/2000/svg" xmlns:xlink="http://www.w3.org/1999/xlink" x="0px"
	 y="0px" viewBox="0 0 283.46 283.46" style="enable-background:new 0 0 283.46 283.46;" xml:space="preserve">
<style type="text/css">
	.st0{fill:#D6DDEB;}
	.st1{fill:#303951;}
	.st2{fill:#DB8059;}
	.st3{fill:#6CA8DC;}
	.st4{fill:#E26F76;}
	.st5{fill:#CF5257;}
	.st6{fill:#738099;}
</style>
<g>
	<g>
		<g>
			<g id="_x33_82_x2C__Sale_x2C__Shop_x2C__Shopping_x2C__Store_1_">
				<g>
					<g>
						<path class="st0" d="M247.29,133.01c-9.85,0-17.83-7.63-17.83-17.05c0,9.42-7.98,17.05-17.83,17.05
							c-9.85,0-17.83-7.63-17.83-17.05c0,9.42-7.98,17.05-17.83,17.05c-9.85,0-17.83-7.63-17.83-17.05
							c0,9.42-7.98,17.05-17.82,17.05c-9.85,0-17.83-7.63-17.83-17.05c0,9.42-7.98,17.05-17.83,17.05
							c-9.85,0-17.83-7.63-17.83-17.05c0,9.42-7.98,17.05-17.83,17.05s-17.83-7.63-17.83-17.05c0,9.42-7.98,17.05-17.82,17.05
							c-1.88,0-4.22-0.45-6.1-0.9V249.2c0,7.18,6.1,13.01,13.6,13.01h196.11c7.5,0,13.6-5.83,13.6-13.01V132.12
							C251.51,132.56,249.16,133.01,247.29,133.01z"/>
						<rect x="170.82" y="217.35" class="st1" width="58.64" height="22.43"/>
						<path class="st2" d="M147.36,166.66v17.05l-17.83,5.83v42.17c0,4.49-3.75,8.07-8.45,8.07H79.33c-4.69,0-8.44-3.59-8.44-8.07
							v-42.17l-17.83-5.83v-17.05h18.3h6.1h11.73c0,6.28,5.16,11.21,11.73,11.21c6.56,0,11.73-4.93,11.73-11.21h11.73h6.1H147.36z"
							/>
						<path class="st3" d="M217.74,166.66v0.45c0,2.69-2.35,5.38-5.16,5.38h-0.47c-2.81,0-5.63-2.24-5.63-4.93v-0.45
							c0-2.69,2.35-5.38,5.16-5.38C214.92,161.27,217.74,163.52,217.74,166.66z"/>
						<path class="st3" d="M194.28,172.49h-23.46c-3.28,0-6.1-2.69-6.1-5.83c0-3.14,2.82-5.83,6.1-5.83h23.46
							c3.28,0,6.1,2.69,6.1,5.83C200.37,169.8,197.56,172.49,194.28,172.49z"/>
						<path class="st3" d="M223.83,189.09h-53.01c-3.28,0-6.1-2.69-6.1-5.83c0-3.14,2.82-5.83,6.1-5.83h53.01
							c3.28,0,6.1,2.69,6.1,5.83C229.93,186.39,227.12,189.09,223.83,189.09z"/>
						<path class="st3" d="M223.83,206.13h-53.01c-3.28,0-6.1-2.69-6.1-5.83c0-3.14,2.82-5.83,6.1-5.83h53.01
							c3.28,0,6.1,2.69,6.1,5.83C229.93,203.44,227.12,206.13,223.83,206.13z"/>
						<path class="st0" d="M252.92,46.44V72.9c-66.62,0-152,0-222.84,0V46.44c0-7.18,6.1-13.01,13.6-13.01h196.1
							C247.29,33.43,252.92,39.26,252.92,46.44z"/>
						<path class="st4" d="M252.92,72.01h-23.46h-35.18h-35.19H123.9H88.72H53.53H30.08H18.35v44.86c0,7.18,4.69,13.46,11.73,15.7
							c1.87,0.45,3.75,0.9,6.1,0.9c9.85,0,17.83-7.63,17.83-17.05c0,9.42,7.98,17.05,17.83,17.05c9.85,0,17.83-7.63,17.83-17.05
							c0,9.42,7.98,17.05,17.82,17.05c9.85,0,17.83-7.63,17.83-17.05c0,9.42,7.98,17.05,17.83,17.05c9.85,0,17.83-7.63,17.83-17.05
							c0,9.42,7.98,17.05,17.83,17.05s17.83-7.63,17.83-17.05c0,9.42,7.98,17.05,17.83,17.05c9.85,0,17.82-7.63,17.82-17.05
							c0,9.42,7.98,17.05,17.83,17.05c1.88,0,4.22-0.45,6.1-0.9c7.04-2.24,11.73-8.52,11.73-15.7V72.01H252.92z"/>
						<path class="st5" d="M229.46,72.01v44.86c0,9.42-7.98,17.05-17.83,17.05c-9.85,0-17.83-7.62-17.83-17.05V72.01H229.46z"/>
						<path class="st5" d="M159.09,72.01v44.86c0,9.42-7.98,17.05-17.83,17.05c-9.85,0-17.82-7.62-17.82-17.05V72.01H159.09z"/>
						<path class="st5" d="M88.72,72.01v44.86c0,9.42-7.98,17.05-17.83,17.05c-9.85,0-17.36-7.62-17.36-17.05V72.01H88.72z"/>
						<path class="st4" d="M264.65,72.01v44.86c0,7.18-4.69,13.46-11.73,15.7c-1.88,0.45-3.76,0.9-6.1,0.9
							c-9.85,0-17.83-7.63-17.83-17.05V71.56h23.46h12.2V72.01z"/>
						<path class="st4" d="M194.28,72.01v44.86c0,9.42-7.98,17.05-17.83,17.05c-9.85,0-17.83-7.62-17.83-17.05V72.01H194.28z"/>
						<path class="st4" d="M123.9,72.01v44.86c0,9.42-7.98,17.05-17.83,17.05s-17.83-7.62-17.83-17.05V72.01H123.9z"/>
						<path class="st4" d="M53.53,72.01v44.86c0,9.42-7.98,17.05-17.82,17.05c-1.88,0-4.22-0.45-6.1-0.9
							c-7.04-2.24-11.73-8.52-11.73-15.7V72.46h11.73h23.93V72.01z"/>
						<path class="st6" d="M276.38,49.13v0.45c0,2.69-2.35,5.38-5.16,5.38h-0.47c-2.82,0-5.63-2.24-5.63-4.93v-0.45
							c0-2.69,2.35-5.38,5.16-5.38C273.56,43.75,276.38,45.99,276.38,49.13z"/>
						<path class="st6" d="M276.38,211.52v0.45c0,2.69-2.35,5.38-5.16,5.38h-0.47c-2.82,0-5.63-2.24-5.63-4.93v-0.45
							c0-2.69,2.35-5.38,5.16-5.38C273.56,206.13,276.38,208.37,276.38,211.52z"/>
						<path class="st6" d="M24.45,26.25v0.45c0,2.69-2.35,5.38-5.16,5.38h-0.47c-2.82,0-5.63-2.24-5.63-4.93V26.7
							c0-2.69,2.35-5.38,5.16-5.38C21.16,20.87,23.98,23.11,24.45,26.25z"/>
						<path class="st6" d="M18.35,167.55V168c0,2.69-2.34,5.38-5.16,5.38h-0.47c-2.81,0-5.63-2.24-5.63-4.93V168
							c0-2.69,2.35-5.38,5.16-5.38C15.53,162.17,18.35,164.41,18.35,167.55z"/>
					</g>
				</g>
			</g>
			<g id="Layer_1_20_">
			</g>
		</g>
	</g>
</g>
</svg>
