<?xml version="1.0" encoding="utf-8"?>
<!-- Generator: Adobe Illustrator 24.2.1, SVG Export Plug-In . SVG Version: 6.00 Build 0)  -->
<svg version="1.1" id="레이어_1" xmlns="http://www.w3.org/2000/svg" xmlns:xlink="http://www.w3.org/1999/xlink" x="0px"
	 y="0px" viewBox="0 0 283.46 283.46" style="enable-background:new 0 0 283.46 283.46;" xml:space="preserve">
<style type="text/css">
	.st0{fill:#BDC2C6;}
	.st1{fill:#414A56;}
	.st2{fill:#565F6E;}
	.st3{fill:#DB8059;}
	.st4{fill:#738099;}
	.st5{fill:#3C3B3D;}
	.st6{fill:#2D2C2E;}
	.st7{fill:#BF5F3E;}
	.st8{fill:#D6EDEC;}
</style>
<g>
	<g>
		<g>
			<g id="_x33_77_x2C__Delivery_Truck_x2C__Delivery_Van_x2C__Package_Delivery">
				<g>
					<g>
						<path class="st0" d="M252.64,251.2H29.91c-3.2,0-5.93-2.7-5.93-5.86s2.74-5.86,5.93-5.86h222.74c3.2,0,5.93,2.7,5.93,5.86
							C258.12,248.5,255.84,251.2,252.64,251.2z"/>
						<path class="st1" d="M195.59,174.17H35.84c-3.19,0-5.93-2.71-5.93-5.86v-50.46c0-3.15,2.74-5.86,5.93-5.86
							c3.2,0,5.48,2.7,5.48,5.86v45.05h148.34V79.56c0-3.6-3.19-6.76-6.85-6.76H18.5c-3.2,0-5.93-2.71-5.93-5.86
							c0-3.15,2.74-5.86,5.93-5.86h164.31c10.04,0,18.26,8.11,18.26,18.02v88.75C201.07,171.46,198.79,174.17,195.59,174.17z"/>
						<path class="st2" d="M189.66,211.56V161.1v-45.05h40.17l39.71,60.82v22.08c0,6.76-5.48,12.61-12.78,12.61H189.66z"/>
						<path class="st3" d="M42.69,211.56c-6.85,0-12.78-5.41-12.78-12.61v-15.77v-22.53h159.75v50.91H42.69z"/>
						<path class="st4" d="M49.99,14.69c4.57,0,8.67,3.6,8.67,8.56c0,4.51-3.65,8.56-8.67,8.56c-4.56,0-8.67-3.6-8.67-8.56
							C41.32,18.29,45.43,14.69,49.99,14.69z"/>
						<path class="st4" d="M246.71,48.48c6.39,0,11.41,4.96,11.41,11.26c0,6.31-5.02,11.26-11.41,11.26
							c-6.39,0-11.41-4.95-11.41-11.26C235.3,53.44,240.78,48.48,246.71,48.48z"/>
						<path class="st5" d="M243.97,211.56c-4.11-6.31-11.41-11.26-20.08-11.26c-8.67,0-15.97,4.51-19.63,11.26
							c-1.82,3.6-3.19,7.21-3.19,11.26c0,12.61,10.04,22.53,22.82,22.53c12.78,0,22.82-9.91,22.82-22.53
							C246.71,218.77,245.8,215.16,243.97,211.56z"/>
						<path class="st5" d="M107.04,211.56c-4.11-6.31-11.41-11.26-20.08-11.26s-15.97,4.51-19.63,11.26
							c-1.82,3.6-3.2,7.21-3.2,11.26c0,12.61,10.04,22.53,22.82,22.53c12.78,0,22.82-9.91,22.82-22.53
							C109.78,218.77,108.87,215.16,107.04,211.56z"/>
						<path class="st0" d="M276.38,245.35v0.45c-0.46,3.15-2.74,5.41-5.93,5.41h-0.45c-3.2-0.45-5.48-2.7-5.48-5.86v-0.45
							c0.45-3.15,3.19-5.86,6.85-5.41C273.64,239.49,276.38,242.19,276.38,245.35z"/>
						<path class="st4" d="M264.06,99.38v0.45c-0.46,3.15-2.74,5.41-5.93,5.41h-0.46c-3.2-0.45-5.48-2.71-5.48-5.86v-0.45
							c0.46-3.15,3.2-5.86,6.85-5.41C261.77,93.98,264.06,96.23,264.06,99.38z"/>
						<path class="st0" d="M246.71,262.92v0.45c-0.46,3.15-2.74,5.41-5.93,5.41h-0.46c-3.2-0.45-5.48-2.71-5.48-5.86v-0.45
							c0.46-3.15,3.2-5.86,6.85-5.41C244.43,257.06,246.71,259.77,246.71,262.92z"/>
						<path class="st6" d="M223.89,217.42c3.2,0,5.48,2.71,5.48,5.86c0,3.15-2.74,5.86-5.93,5.86c-3.2,0-5.93-2.71-5.93-5.86
							C218.41,220.12,221.15,217.42,223.89,217.42L223.89,217.42z"/>
						<path class="st4" d="M201.98,31.36v0.45c-0.46,3.15-2.74,5.41-5.93,5.41h-0.45c-3.2-0.45-5.48-2.7-5.48-5.86v-0.45
							c0.46-3.15,3.2-5.86,6.85-5.41C199.7,25.5,201.98,28.2,201.98,31.36z"/>
						<path class="st2" d="M93.81,101.19v0.45c-0.46,3.15-2.74,5.41-5.93,5.41h-0.45c-3.2-0.45-5.48-2.7-5.48-5.86v-0.45
							c0.46-3.15,3.2-5.86,6.85-5.41C91.07,95.33,93.81,98.03,93.81,101.19z"/>
						<path class="st6" d="M86.96,217.42c3.2,0,5.48,2.71,5.48,5.86c0,3.15-2.74,5.86-5.93,5.86c-3.2,0-5.93-2.71-5.93-5.86
							C81.48,220.12,84.22,217.42,86.96,217.42L86.96,217.42z"/>
						<path class="st2" d="M70.99,84.07v0.45c-0.46,3.15-2.74,5.41-5.93,5.41H64.6c-3.2-0.45-5.48-2.7-5.48-5.86v-0.45
							c0.46-3.15,3.2-5.86,6.85-5.4C68.25,78.66,70.99,81.36,70.99,84.07z"/>
						<g>
							<g>
								<path class="st7" d="M155.42,183.63c0-3.15-2.74-5.86-5.93-5.86H29.91v5.86v5.86h120.04
									C153.14,189.04,155.42,186.78,155.42,183.63z"/>
							</g>
						</g>
						<g>
							<path class="st8" d="M225.26,143.98c3.2,0,5.93-2.7,5.93-5.86s-2.74-5.86-5.93-5.86h-5.93c-3.2,0-5.93,2.7-5.93,5.86v22.53
								c0,3.15,2.74,5.86,5.93,5.86h43.36l-7.3-11.26H224.8v-11.26H225.26z"/>
						</g>
						<path class="st1" d="M223.89,183.63h-5.93c-3.19,0-5.93-2.7-5.93-5.86c0-3.15,2.74-5.86,5.93-5.86h5.93
							c3.2,0,5.93,2.7,5.93,5.86C229.82,180.93,227.08,183.63,223.89,183.63z"/>
						<path class="st0" d="M223.89,267.87H13.02c-3.2,0-5.93-2.7-5.93-5.86c0-3.15,2.74-5.86,5.93-5.86h210.87
							c3.2,0,5.93,2.7,5.93,5.86C229.82,265.62,227.08,267.87,223.89,267.87z"/>
						<path class="st2" d="M47.25,89.48H18.5c-3.2,0-5.93-2.71-5.93-5.86c0-3.15,2.74-5.86,5.93-5.86h28.75
							c3.2,0,5.93,2.71,5.93,5.86C52.73,87.22,50.45,89.48,47.25,89.48z"/>
						<path class="st2" d="M70.07,106.59H35.84c-3.19,0-5.93-2.71-5.93-5.86c0-3.15,2.74-5.86,5.93-5.86h34.23
							c3.2,0,5.93,2.71,5.93,5.86C75.55,103.89,73.27,106.59,70.07,106.59z"/>
					</g>
				</g>
			</g>
			<g id="Layer_1_00000057851288928048125600000015308709770603492489_">
			</g>
		</g>
	</g>
</g>
</svg>
