<?xml version="1.0" encoding="utf-8"?>
<!-- Generator: Adobe Illustrator 24.2.1, SVG Export Plug-In . SVG Version: 6.00 Build 0)  -->
<svg version="1.1" id="레이어_1" xmlns="http://www.w3.org/2000/svg" xmlns:xlink="http://www.w3.org/1999/xlink" x="0px"
	 y="0px" viewBox="0 0 283.46 283.46" style="enable-background:new 0 0 283.46 283.46;" xml:space="preserve">
<style type="text/css">
	.st0{fill:#738099;}
	.st1{fill:#DB8059;}
	.st2{fill:#17366D;}
	.st3{fill:#3C3B3D;}
</style>
<g>
	<g>
		<g>
			<g id="_x33_76_x2C__Tag_x2C__Label_x2C__Sale">
				<g>
					<g>
						<path class="st0" d="M254.94,202.79c7.87,0,14.35,6.45,14.35,14.28c0,7.83-6.48,14.28-14.35,14.28
							c-7.87,0-14.35-6.45-14.35-14.28C240.13,209.24,246.61,202.79,254.94,202.79z"/>
						<path class="st0" d="M37.87,76.1c6.48,0,11.57,5.07,11.57,11.52c0,6.45-5.09,11.52-11.57,11.52
							c-6.48,0-11.57-5.07-11.57-11.52C26.3,81.17,31.39,76.1,37.87,76.1z"/>
						<path class="st1" d="M223.93,36.95l33.79-1.38v105.95L128.13,270.5c-7.87,7.83-20.37,7.83-27.77,0L26.3,196.34
							c-7.87-7.83-7.87-19.81,0-27.64L155.43,39.71L223.93,36.95z M185.98,136.91c0-1.38-0.46-2.76-1.39-3.68
							c-1.39-1.38-2.78-2.3-4.63-2.3c-1.39,0-2.78,0.46-3.7,1.38c-2.78,2.3-3.24,5.99-0.93,8.75c1.39,1.38,2.78,2.3,4.63,2.3
							c1.39,0,2.78-0.46,3.7-1.38C185.05,140.6,185.98,138.75,185.98,136.91z M112.39,177.91c0-1.38-0.46-2.76-1.39-3.68
							c-1.39-1.38-2.78-2.3-4.63-2.3c-1.39,0-2.78,0.46-3.7,1.38c-2.78,2.3-3.24,5.99-0.93,8.75c1.39,1.38,2.78,2.3,4.63,2.3
							c1.39,0,2.78-0.46,3.7-1.38C111.46,181.14,112.39,179.75,112.39,177.91z"/>
						<path class="st0" d="M193.38,238.72c0.93,0.92,1.39,2.3,1.39,3.68c0,1.84-0.93,3.69-2.31,4.61c-0.93,0.92-2.32,1.38-3.7,1.38
							c-1.85,0-3.7-0.92-4.63-2.3c-2.31-2.76-1.85-6.45,0.92-8.75c0.93-0.92,2.32-1.38,3.7-1.38
							C190.14,236.42,192,237.34,193.38,238.72z"/>
						<path class="st2" d="M184.59,133.23c0.92,0.92,1.39,2.3,1.39,3.68c0,1.84-0.93,3.68-2.31,4.61c-0.93,0.92-2.31,1.38-3.7,1.38
							c-1.85,0-3.7-0.92-4.63-2.3c-2.31-2.76-1.85-6.45,0.93-8.75c0.92-0.92,2.31-1.38,3.7-1.38
							C181.82,130.92,183.67,131.84,184.59,133.23z"/>
						<path class="st2" d="M111,173.76c0.93,0.92,1.39,2.3,1.39,3.68c0,1.84-0.93,3.69-2.32,4.61c-0.92,0.92-2.31,1.38-3.7,1.38
							c-1.85,0-3.7-0.92-4.63-2.3c-2.31-2.76-1.85-6.45,0.93-8.75c0.93-0.92,2.31-1.38,3.7-1.38
							C108.22,171.46,109.61,172.38,111,173.76z"/>
						<path class="st0" d="M88.32,32.34c0.93,0.92,1.39,2.3,1.39,3.69c0,1.84-0.93,3.68-2.32,4.61c-0.92,0.92-2.31,1.38-3.7,1.38
							c-1.85,0-3.7-0.92-4.63-2.3c-2.31-2.76-1.85-6.45,0.93-8.75c0.93-0.92,2.31-1.38,3.7-1.38
							C85.54,30.04,87.39,30.96,88.32,32.34z"/>
						<path class="st0" d="M53.61,239.64c0.93,0.92,1.39,2.3,1.39,3.69c0,1.84-0.93,3.68-2.31,4.61c-0.93,0.92-2.31,1.38-3.7,1.38
							c-1.85,0-3.7-0.92-4.63-2.3c-2.31-2.76-1.85-6.45,0.92-8.75c0.93-0.92,2.32-1.38,3.7-1.38
							C50.83,237.34,52.68,238.26,53.61,239.64z"/>
						<path class="st0" d="M24.91,129.54c0.92,0.92,1.39,2.3,1.39,3.69c0,1.84-0.92,3.68-2.31,4.61c-0.93,0.92-2.31,1.38-3.7,1.38
							c-1.85,0-3.7-0.92-4.63-2.3c-2.31-2.76-1.85-6.45,0.93-8.75c0.92-0.92,2.31-1.38,3.7-1.38
							C21.67,127.24,23.52,128.16,24.91,129.54z"/>
						<path class="st2" d="M61.48,196.34c-1.39,0-2.78-0.46-4.17-1.84c-2.31-2.3-2.31-5.99,0-8.29l44.9-44.69
							c2.31-2.3,6.02-2.3,8.33,0c2.31,2.3,2.31,5.99,0,8.29l-44.9,44.69C64.25,195.88,62.86,196.34,61.48,196.34z"/>
						<path class="st2" d="M118.4,139.21c-1.39,0-2.78-0.46-4.16-1.84c-2.31-2.3-2.31-5.99,0-8.29l20.36-20.27
							c2.32-2.3,6.02-2.3,8.33,0c2.32,2.3,2.32,5.99,0,8.29l-20.36,20.27C121.65,138.75,119.79,139.21,118.4,139.21z"/>
						<path class="st2" d="M77.68,212.46c-1.39,0-2.78-0.46-4.17-1.84c-2.31-2.3-2.31-5.99,0-8.29l16.2-16.12
							c2.31-2.3,6.02-2.3,8.33,0c2.31,2.3,2.31,5.99,0,8.29l-16.2,16.12C80.45,212,79.06,212.46,77.68,212.46z"/>
						<path class="st2" d="M118.4,171.92c-1.39,0-2.78-0.46-4.16-1.84c-2.31-2.3-2.31-5.99,0-8.29l49.06-48.83
							c2.31-2.3,6.02-2.3,8.33,0c2.31,2.3,2.31,5.99,0,8.29l-49.06,48.83C121.65,171.46,119.79,171.92,118.4,171.92z"/>
						<path class="st2" d="M93.87,229.04c-1.39,0-2.78-0.46-4.16-1.84c-2.32-2.3-2.32-5.99,0-8.29l73.59-73.25
							c2.31-2.3,6.02-2.3,8.33,0c2.31,2.3,2.31,5.99,0,8.29L98.04,227.2C97.11,228.12,95.26,229.04,93.87,229.04z"/>
						<path class="st2" d="M114.24,241.02c-1.39,0-2.78-0.46-4.17-1.84c-2.31-2.3-2.31-5.99,0-8.29l20.37-20.27
							c2.31-2.3,6.02-2.3,8.33,0s2.31,5.99,0,8.29l-20.37,20.27C117.48,240.56,116.09,241.02,114.24,241.02z"/>
						<path class="st2" d="M147.1,208.31c-1.39,0-2.78-0.46-4.17-1.84c-2.31-2.3-2.31-5.99,0-8.29l24.53-24.41
							c2.31-2.3,6.02-2.3,8.33,0c2.31,2.3,2.31,5.99,0,8.29l-24.53,24.42C150.34,207.85,148.49,208.31,147.1,208.31z"/>
						<path class="st3" d="M228.56,81.63c-0.46,0-0.93,0-1.39,0c-3.24-0.92-5.09-3.68-4.16-6.91c2.78-12.9,1.39-24.41-4.17-35.01
							c-7.87-14.74-21.75-21.65-21.75-21.65c-2.78-1.38-4.16-5.07-2.31-7.83c1.39-2.76,5.09-4.15,7.87-2.3
							c0.46,0.46,17.13,8.75,26.85,26.72c6.94,12.9,8.79,27.18,5.09,42.84C233.65,80.25,231.34,81.63,228.56,81.63z"/>
					</g>
				</g>
			</g>
			<g id="Layer_1_00000099647186438543681910000013279728127059449790_">
			</g>
		</g>
	</g>
</g>
</svg>
