<?xml version="1.0" encoding="utf-8"?>
<!-- Generator: Adobe Illustrator 24.2.1, SVG Export Plug-In . SVG Version: 6.00 Build 0)  -->
<svg version="1.1" id="레이어_1" xmlns="http://www.w3.org/2000/svg" xmlns:xlink="http://www.w3.org/1999/xlink" x="0px"
	 y="0px" viewBox="0 0 283.46 283.46" style="enable-background:new 0 0 283.46 283.46;" xml:space="preserve">
<style type="text/css">
	.st0{fill:#4D6495;}
	.st1{fill:#E17B27;}
	.st2{fill:#738099;}
	.st3{fill:#FFFFFF;}
</style>
<g>
	<g>
		<g>
			<g id="_x33_94_x2C__Badge_x2C__Label_x2C__New_x2C__Shopping_1_">
				<g>
					<g>
						<path class="st0" d="M255.36,146.6c-0.98-2.92-0.98-6.33,0-9.74l8.31-24.83c1.95-6.33,0-13.14-5.86-17.53L236.3,78.93
							c-2.44-1.95-4.4-4.87-5.86-7.79l-8.31-24.83c-1.95-6.33-7.82-10.71-14.66-10.71h-26.39c-3.42,0-6.35-0.97-9.29-2.92
							l-21.51-15.58c-5.38-3.89-12.71-3.89-18.08,0l-21.5,15.58c-2.45,1.95-5.86,2.92-9.29,2.92H75.02
							c-6.84,0-12.71,4.38-14.66,10.71l-8.31,24.83c-0.98,2.92-2.93,5.84-5.86,7.79l-21.5,15.58c-5.38,3.9-7.82,10.71-5.87,17.53
							l8.31,24.83c0.98,2.92,0.98,6.33,0,9.74l-8.31,24.83c-1.96,6.33,0,13.14,5.87,17.53l21.5,15.58c2.45,1.95,4.4,4.87,5.86,7.79
							l8.31,24.83c1.95,6.33,7.82,10.71,14.66,10.71h26.39c3.42,0,6.35,0.97,9.29,2.92l21.5,15.58c5.38,3.89,12.71,3.89,18.08,0
							l21.51-15.58c2.44-1.95,5.86-2.92,9.29-2.92h26.39c6.84,0,12.71-4.38,14.66-10.71l8.31-24.83c0.98-2.92,2.93-5.84,5.86-7.79
							l21.51-15.58c5.38-3.9,7.82-10.71,5.86-17.53L255.36,146.6z"/>
						<path class="st1" d="M224.08,146.6c-0.98-2.92-0.98-6.33,0-9.74l4.4-13.63c1.95-6.33,0-13.15-5.86-17.04l-11.73-8.28
							c-2.45-1.95-4.4-4.87-5.86-7.79l-4.4-13.63c-1.95-6.33-7.82-10.71-14.66-10.71H171.3c-3.42,0-6.35-0.97-9.29-2.92l-10.75-8.76
							c-5.38-3.89-12.71-3.89-18.08,0l-11.73,8.28c-2.44,1.95-5.86,2.92-9.29,2.92H97.5c-6.84,0-12.71,4.38-14.66,10.71l-4.4,13.63
							c-0.98,2.92-2.93,5.84-5.86,7.79l-11.73,8.28c-5.38,3.89-7.82,10.71-5.86,17.04l4.4,13.63c0.98,2.92,0.98,6.33,0,9.74
							l-4.4,13.63c-1.95,6.33,0,13.14,5.86,17.53l11.73,8.28c2.44,1.95,4.4,4.87,5.86,7.79l4.4,13.63
							c1.95,6.33,7.82,10.71,14.66,10.71h14.66c3.42,0,6.35,0.97,9.29,2.92l11.73,8.28c5.38,3.9,12.71,3.9,18.08,0l11.73-8.28
							c2.44-1.95,5.86-2.92,9.29-2.92h14.66c6.84,0,12.71-4.38,14.66-10.71l4.4-13.63c0.98-2.92,2.93-5.84,5.86-7.79l11.73-8.28
							c5.38-3.89,7.82-10.71,5.86-17.53L224.08,146.6z"/>
						<path class="st2" d="M261.23,14.17c8.31,0,15.15,6.82,15.15,15.09c0,8.28-6.84,15.09-15.15,15.09
							c-8.31,0-15.15-6.82-15.15-15.09C246.08,20.99,252.43,14.17,261.23,14.17z"/>
						<path class="st2" d="M26.15,239.11c6.84,0,12.22,5.36,12.22,12.17s-5.38,12.17-12.22,12.17c-6.84,0-12.22-5.36-12.22-12.17
							C13.93,244.95,19.31,239.11,26.15,239.11z"/>
						<path class="st2" d="M274.42,70.65c0.98,0.97,1.95,2.43,1.95,4.38c0,1.95-0.49,3.41-1.95,4.38c-0.98,0.97-2.44,1.95-4.4,1.95
							c-3.42,0-6.35-2.92-6.35-6.33c0-1.46,0.49-3.41,1.95-4.38c0.98-0.97,2.44-1.95,4.4-1.95
							C271.98,68.7,273.45,69.68,274.42,70.65z"/>
						<path class="st2" d="M262.21,228.88c0.98,0.97,1.96,2.43,1.96,4.38c0,1.46-0.49,3.41-1.96,4.38c-0.98,0.97-2.44,1.95-4.4,1.95
							c-3.42,0-6.35-2.92-6.35-6.33c0-1.46,0.49-3.41,1.95-4.38c0.98-0.97,2.44-1.95,4.4-1.95
							C259.76,226.93,261.23,227.91,262.21,228.88z"/>
						<g>
							<polygon class="st3" points="199.65,121.28 189.38,151.47 184.99,140.76 191.83,121.28 183.03,121.28 179.12,134.43 
								174.72,121.28 166.41,121.28 172.77,140.76 168.86,151.47 158.59,121.28 148.33,121.28 164.46,162.18 172.77,162.18 
								179.12,146.11 185.47,162.18 193.78,162.18 209.91,121.28 							"/>
							<polygon class="st3" points="127.32,145.14 143.44,145.14 143.44,137.84 127.32,137.84 127.32,129.56 146.38,129.56 
								146.38,121.28 118.03,121.28 118.03,162.18 146.86,162.18 146.86,153.9 127.32,153.9 							"/>
							<polygon class="st3" points="100.43,145.63 81.37,121.28 74.04,121.28 74.04,162.18 83.33,162.18 83.33,138.81 
								102.39,162.18 110.21,162.18 110.21,121.28 100.43,121.28 							"/>
						</g>
						<path class="st2" d="M42.28,16.12c0.98,0.97,1.95,2.43,1.95,4.38c0,1.46-0.49,3.41-1.95,4.38c-1.47,0.97-2.44,1.95-4.4,1.95
							c-3.42,0-6.35-2.92-6.35-6.33c0-1.46,0.49-3.41,1.96-4.38c1.47-0.97,2.44-1.95,4.4-1.95C39.83,14.17,41.3,14.66,42.28,16.12z"
							/>
						<path class="st2" d="M17.84,204.54c0.98,0.97,1.95,2.43,1.95,4.38c0,1.95-0.49,3.41-1.95,4.38c-0.98,0.97-2.44,1.95-4.4,1.95
							c-3.42,0-6.35-2.92-6.35-6.33c0-1.46,0.49-3.41,1.95-4.38c0.98-0.97,2.44-1.95,4.4-1.95
							C15.39,202.59,16.86,203.57,17.84,204.54z"/>
					</g>
				</g>
			</g>
			<g id="Layer_1_18_">
			</g>
		</g>
	</g>
</g>
</svg>
