<?xml version="1.0" encoding="utf-8"?>
<!-- Generator: Adobe Illustrator 24.2.1, SVG Export Plug-In . SVG Version: 6.00 Build 0)  -->
<svg version="1.1" id="레이어_1" xmlns="http://www.w3.org/2000/svg" xmlns:xlink="http://www.w3.org/1999/xlink" x="0px"
	 y="0px" viewBox="0 0 283.46 283.46" style="enable-background:new 0 0 283.46 283.46;" xml:space="preserve">
<style type="text/css">
	.st0{fill:#A18570;}
	.st1{fill:#8D715D;}
	.st2{fill:#EC7BAC;}
	.st3{fill:#CF5B95;}
	.st4{fill:#738099;}
	.st5{fill:#73665D;}
</style>
<g>
	<g>
		<g>
			<g id="_x33_86_x2C__Box_x2C__Gift_x2C__Retail_x2C__Shopping">
				<g>
					<g>
						<polygon class="st0" points="156.43,123.88 120.87,123.88 32.19,123.88 32.19,268.83 120.87,268.83 156.43,268.83 
							245.58,268.83 245.58,123.88 						"/>
						<rect x="120.87" y="123.88" class="st1" width="35.57" height="145.41"/>
						<rect x="156.43" y="123.88" class="st0" width="89.15" height="145.41"/>
						<rect x="32.19" y="123.88" class="st0" width="89.15" height="145.41"/>
						<path class="st2" d="M193.89,54.19c-6.16-10.68-19.44-14.87-30.82-10.22l0,0c-1.42-12.08-11.85-21.37-24.18-21.37
							c-12.8,0-22.76,9.29-24.18,21.37c-11.38-4.65-24.66-0.46-30.82,10.22c-6.16,10.22-3.79,22.76,5.22,30.2h49.32h1.42h49.31
							C197.69,76.95,200.06,64.41,193.89,54.19z"/>
						<path class="st3" d="M138.89,23.06c12.8,0,23.24,9.29,24.18,21.37c0,0.47,0,0.47,0,0.93v0.47c0,0.46,0,0.93,0,1.39
							c0,12.08-15.65,24.62-24.18,37.63h-1.42c-8.06-12.54-23.71-25.55-23.71-37.63c0-0.47,0-0.93,0-1.39l0,0c0-0.47,0-0.93,0-1.4
							C115.65,32.35,126.08,23.06,138.89,23.06z"/>
						<path class="st2" d="M193.89,54.19c6.16,10.22,3.79,22.76-5.22,30.2h-49.32c8.54-12.54,24.18-25.55,24.18-37.63
							c0-0.46,0-0.93,0-1.39V44.9c0-0.47,0-0.47,0-0.93l0,0C174.45,39.32,187.73,43.5,193.89,54.19z"/>
						<path class="st2" d="M114.23,45.36L114.23,45.36c0,0.47,0,0.93,0,1.39c0,11.61,15.65,25.09,23.71,37.63H88.62
							c-8.54-7.44-10.91-19.98-5.22-30.2c6.16-10.68,19.92-14.87,30.82-10.22C114.23,44.43,114.23,44.9,114.23,45.36z"/>
						<path class="st4" d="M257.44,19.81c6.64,0,11.86,5.11,11.86,11.61c0,6.51-5.22,11.61-11.86,11.61
							c-6.64,0-11.86-5.11-11.86-11.61C245.58,24.92,250.8,19.81,257.44,19.81z"/>
						<path class="st4" d="M29.35,31.42c4.74,0,9.01,3.72,9.01,8.83c0,4.65-3.79,8.82-9.01,8.82s-9.01-3.72-9.01-8.82
							C20.34,35.61,24.13,31.42,29.35,31.42z"/>
						<polygon class="st5" points="139.36,83.92 189.15,83.92 263.12,83.92 263.12,124.34 245.58,124.34 156.43,124.34 
							120.87,124.34 32.19,124.34 14.17,124.34 14.17,83.92 88.62,83.92 137.94,83.92 						"/>
						<path class="st4" d="M232.78,48.15v0.46c0,2.79-2.37,5.58-5.22,5.58h-0.47c-2.85,0-5.69-2.32-5.69-5.11v-0.46
							c0-2.79,2.37-5.58,5.22-5.58C229.93,43.04,232.78,45.36,232.78,48.15z"/>
						<path class="st4" d="M180.14,19.35v0.46c0,2.79-2.37,5.58-5.22,5.58h-0.47c-2.85,0-5.69-2.32-5.69-5.11v-0.47
							c0-2.79,2.37-5.58,5.22-5.58C176.82,13.77,179.67,16.09,180.14,19.35z"/>
						<path class="st4" d="M79.61,30.96v0.46c0,2.79-2.37,5.58-5.22,5.58h-0.47c-2.84,0-5.69-2.32-5.69-5.11v-0.47
							c0-2.79,2.37-5.58,5.22-5.58C76.29,25.38,79.14,27.71,79.61,30.96z"/>
						<path class="st4" d="M49.74,66.27v0.47c0,2.79-2.37,5.57-5.22,5.57h-0.47c-2.85,0-5.69-2.32-5.69-5.11v-0.46
							c0-2.79,2.37-5.58,5.22-5.58C46.42,60.69,49.74,63.01,49.74,66.27z"/>
					</g>
				</g>
			</g>
			<g id="Layer_1_00000098938400215746620860000005222179704259296915_">
			</g>
		</g>
	</g>
</g>
</svg>
